<svg width="99" height="144" viewBox="0 0 99 144" fill="none" xmlns="http://www.w3.org/2000/svg">
<path d="M75.0348 0.000183105C87.8775 0.000183105 98.285 10.41 98.285 23.2504C98.285 36.0904 87.8775 46.4992 75.0348 46.4992C62.1965 46.4992 51.7863 36.0904 51.7863 23.2504C51.7859 10.41 62.1961 0.000183105 75.0348 0.000183105Z" fill="#12515A"/>
<path d="M24.7183 87.5719C26.6576 87.5719 28.3784 86.6977 29.5598 85.3422L68.694 49.3066C60.9266 47.4219 54.4776 42.1506 51.0032 35.1486L20.087 76.3022C18.9476 77.8933 18.2723 79.2806 18.2723 81.1229C18.2723 84.6826 21.1616 87.5719 24.7183 87.5719Z" fill="#12515A"/>
<path d="M5.90852 122.21C18.9134 132.203 38.905 113.275 39.6519 112.553C39.8666 112.365 60.9529 93.8002 70.7831 104.796C72.8354 107.083 73.6929 109.732 73.4208 112.89C72.3868 124.602 56.1226 139.781 49.9402 144.64C48.3969 145.855 48.1289 148.094 49.3428 149.639C50.0447 150.533 51.0844 151 52.142 151C52.9066 151 53.6863 150.748 54.3291 150.243C55.3402 149.45 78.9925 130.71 80.5058 113.521C80.9612 108.364 79.4745 103.833 76.0896 100.049C71.756 95.2025 63.5633 90.874 49.1923 97.7729C41.3245 101.543 35.1718 107.013 34.8195 107.327C30.5918 111.373 16.9994 121.752 10.2408 116.562C8.76948 115.432 8.01371 114.065 7.85497 112.262C7.32279 106.037 13.9043 97.0735 17.1783 93.3226L24.4705 90.7798C24.4705 90.7798 23.0101 90.617 19.5716 87.5348C16.3563 84.6455 15.5032 81.5214 15.5032 81.5214L12.2213 88.1888C9.88403 90.7948 -0.100823 102.592 0.767945 112.862C1.08644 116.641 2.86323 119.875 5.90852 122.21Z" fill="#12515A"/>
</svg>
