<svg width="32" height="32" viewBox="0 0 32 32" fill="none" xmlns="http://www.w3.org/2000/svg">
<path d="M22.874 8.49606H22.887M9.14957 2.61417H22.2204C25.8299 2.61417 28.7559 5.54019 28.7559 9.14961V22.2205C28.7559 25.8299 25.8299 28.7559 22.2204 28.7559H9.14957C5.54015 28.7559 2.61414 25.8299 2.61414 22.2205V9.14961C2.61414 5.54019 5.54015 2.61417 9.14957 2.61417ZM20.9133 14.8616C21.0747 15.9494 20.8889 17.0604 20.3824 18.0365C19.8759 19.0126 19.0745 19.8042 18.0922 20.2986C17.1099 20.793 15.9967 20.9651 14.9109 20.7904C13.8252 20.6157 12.8222 20.1031 12.0446 19.3255C11.2669 18.5479 10.7543 17.5449 10.5796 16.4591C10.4049 15.3734 10.577 14.2602 11.0714 13.2779C11.5658 12.2956 12.3574 11.4942 13.3335 10.9877C14.3097 10.4812 15.4206 10.2954 16.5085 10.4567C17.6181 10.6212 18.6454 11.1383 19.4386 11.9315C20.2318 12.7247 20.7488 13.752 20.9133 14.8616Z" stroke="white" stroke-width="2" stroke-linecap="round" stroke-linejoin="round"/>
</svg>
