<svg width="32" height="32" viewBox="0 0 32 32" fill="none" xmlns="http://www.w3.org/2000/svg">
<g clip-path="url(#clip0_258_502)">
<path d="M29.8319 8.3915C29.6766 7.77117 29.3604 7.2028 28.9152 6.74379C28.47 6.28479 27.9115 5.95141 27.2962 5.77732C25.048 5.22835 16.0552 5.22835 16.0552 5.22835C16.0552 5.22835 7.06246 5.22835 4.81427 5.82961C4.19895 6.00369 3.64048 6.33707 3.19524 6.79608C2.75001 7.25508 2.43379 7.82345 2.27852 8.44378C1.86707 10.7254 1.66581 13.0399 1.67726 15.3583C1.66259 17.6941 1.86387 20.0263 2.27852 22.325C2.4497 22.9261 2.773 23.4729 3.2172 23.9125C3.66139 24.3521 4.21147 24.6697 4.81427 24.8346C7.06246 25.4359 16.0552 25.4359 16.0552 25.4359C16.0552 25.4359 25.048 25.4359 27.2962 24.8346C27.9115 24.6606 28.47 24.3272 28.9152 23.8682C29.3604 23.4092 29.6766 22.8408 29.8319 22.2205C30.2402 19.9561 30.4414 17.6592 30.4332 15.3583C30.4478 13.0224 30.2466 10.6903 29.8319 8.3915Z" stroke="white" stroke-width="2" stroke-linecap="round" stroke-linejoin="round"/>
<path d="M13.1143 19.6324L20.63 15.3583L13.1143 11.0841V19.6324Z" stroke="white" stroke-width="2" stroke-linecap="round" stroke-linejoin="round"/>
</g>
<defs>
<clipPath id="clip0_258_502">
<rect width="31.3701" height="31.3701" fill="white" transform="translate(0.370117)"/>
</clipPath>
</defs>
</svg>
